PathFileType	4	(X/Y/Z)	D:\Research_projects\MuscleProsody\BulkSports2Dtrack\RetrackedSports2D\p1_sample60_cam1\p1_sample60_cam1_Sports2D\p1_sample60_cam1_Sports2D_m_person00.trc
DataRate	CameraRate	NumFrames	NumMarkers	Units	OrigDataRate	OrigDataStartFrame	OrigNumFrames
60	60	6	22	m	60	97	780
Frame#	Time	Hip			RHip			RKnee			RAnkle			RBigToe			RSmallToe			RHeel			LHip			LKnee			LAnkle			LBigToe			LSmallToe			LHeel			Neck			Head			Nose			RShoulder			RElbow			RWrist			LShoulder			LElbow			LWrist		
		X1	Y1	Z1	X2	Y2	Z2	X3	Y3	Z3	X4	Y4	Z4	X5	Y5	Z5	X6	Y6	Z6	X7	Y7	Z7	X8	Y8	Z8	X9	Y9	Z9	X10	Y10	Z10	X11	Y11	Z11	X12	Y12	Z12	X13	Y13	Z13	X14	Y14	Z14	X15	Y15	Z15	X16	Y16	Z16	X17	Y17	Z17	X18	Y18	Z18	X19	Y19	Z19	X20	Y20	Z20	X21	Y21	Z21	X22	Y22	Z22
97	1.6166666666666667	1.828270599732413	0.6823650972662282	0.0301	1.7295067557274695	0.7074813144583256	0.0301	1.4888595195613765	0.4297912500838136	0.129	1.2689487446185292	0.17622458674967706	0.023	1.3217654695765004	-0.0017952379209961987	0.2179	1.2526142529448412	0.031880507746929784	0.1804	1.207653431819666	0.15856402402191627	-0.0119	1.8793289226293346	0.6164289735597586	0.0301	1.6383724297637379	0.3605339308181022	0.129	1.3967422364283186	0.16318345132577644	0.023	1.4309784021925653	0.014932458840369483	0.2179	1.4606328408624756	0.028576971476358615	0.1804	1.3464206382646215	0.1337148952518403	-0.0119	2.244818000942987	1.1672854707587084	0.0008	2.4788196297257747	1.3484140434550305	0.0655	2.4396519290236767	1.2079742366669408	0.1076	2.037377733988026	1.1892027675448618	-0.01275	1.815958324891755	0.9982818676454229	0.0702	2.05927908553156	0.8141317305192444	0.1076	2.267170482104129	1.0201709376168544	-0.01275	2.1092448127864594	0.7930946885592357	0.0702	2.0460758508315577	0.5868104780804515	0.1076
98	1.6333333333333333	1.8283319716682627	0.6835491103086039	0.0301	1.729795783343479	0.7085472742490281	0.0301	1.488512626483187	0.4297896659305327	0.129	1.2683999266644912	0.17583423672424794	0.023	1.321697450835204	-0.002287802728155138	0.2179	1.252566655713854	0.03148284789393393	0.1804	1.2060023637509003	0.15853771806200095	-0.0119	1.879095332725313	0.6178075485349421	0.0301	1.6383321012026766	0.36077518271092873	0.129	1.3963531426058295	0.16287022380658278	0.023	1.4316249662169573	0.014441923208994267	0.2179	1.4609505228585673	0.028559998629751213	0.1804	1.3450690990302847	0.13352362393533446	-0.0119	2.245109108684308	1.1676244697248166	0.0008	2.4790781915061797	1.3482355512783846	0.0655	2.4395829156901114	1.2076963187518148	0.1076	2.0394938976552544	1.1902054449410484	-0.01275	1.8123983324533879	1.0059965194436784	0.0702	2.0581782762581895	0.8145909472788416	0.1076	2.266950208381559	1.0205603770273348	-0.01275	2.1103005778069512	0.793923492040058	0.0702	2.0614678914657345	0.5874186939784866	0.1076
99	1.65	1.828202174691804	0.6849236028479472	0.0301	1.730092068276672	0.7098029264960533	0.0301	1.4880459135476758	0.42991073134395613	0.129	1.267797530959174	0.17558377555294702	0.023	1.3215589736524653	-0.002769828277018308	0.2179	1.2523427298243492	0.031210044157516204	0.1804	1.204161626487297	0.1587033379838703	-0.0119	1.8787123099969183	0.6193842892363152	0.0301	1.6379986146479344	0.3610819202766192	0.129	1.3959034912980048	0.16248584053077705	0.023	1.4321886712164413	0.013881849477766646	0.2179	1.4611419961324292	0.02839179113128734	0.1804	1.34348825478063	0.13336608099188246	-0.0119	2.245560788749706	1.1679399381900386	0.0008	2.4796010459364854	1.347864122548166	0.0655	2.4396936913614296	1.207212134006519	0.1076	2.0418225845294615	1.191327665802306	-0.01275	1.8091030406227402	1.014555339620189	0.0702	2.059290043983726	0.8185785707589014	0.1076	2.2667669857818726	1.021041296494003	-0.01275	2.1121893366424427	0.795239881251499	0.0702	2.080924425739493	0.5890770237058242	0.1076
100	1.6666666666666667	1.82785950749179	0.6864481780163614	0.0301	1.7303823390361353	0.7111944032048709	0.0301	1.4874233046805505	0.4301469951250931	0.129	1.2671610831995592	0.175497023683297	0.023	1.3213172912449702	-0.0032341381604400737	0.2179	1.2518836377240266	0.031109746836989395	0.1804	1.2022739116283132	0.15905074245606748	-0.0119	1.878182495848158	0.6211196381001469	0.0301	1.6373387506660433	0.36144026539291274	0.129	1.3954157646492333	0.1620685501980952	0.023	1.4326176397589696	0.013260535196649574	0.2179	1.4611775048098126	0.028057158233301502	0.1804	1.341753611488402	0.13329160723847422	-0.0119	2.2461277637946715	1.168228395676292	0.0008	2.480334133723387	1.34734178827604	0.0655	2.439984190100367	1.2065499972960572	0.1076	2.0442337319447796	1.1925342159445087	-0.01275	1.8060305086637238	1.0237693173390952	0.0702	2.0621075742979555	0.8257387932456394	0.1076	2.2666468581318084	1.0215761833230617	-0.01275	2.115211090423049	0.7969291589589523	0.0702	2.1045475899851978	0.5920007939926042	0.1076
101	1.6833333333333333	1.8273296268302834	0.6880847454071485	0.0301	1.7306546724255203	0.7126641491581741	0.0301	1.48660962448509	0.43049028607500106	0.129	1.2665091355597027	0.1755840362104452	0.023	1.320924448257371	-0.003674786988748149	0.2179	1.2511352502790072	0.03121223943538452	0.1804	1.2005013496237718	0.15955095029153557	-0.0119	1.8775471049226038	0.6229601080121985	0.0301	1.6363574030494874	0.3618360956090561	0.129	1.3949230799101902	0.16168092125887962	0.023	1.4328468632701827	0.012607095548578763	0.2179	1.4610204553612274	0.027572078635684543	0.1804	1.3399692833895587	0.13336290550886948	-0.0119	2.246736084997816	1.1685027949946096	0.0008	2.481201129965733	1.3467119060262318	0.0655	2.440440976341678	1.2057413630534644	0.1076	2.0465648124168156	1.1937974461671228	-0.01275	1.803079204622962	1.0334300461996886	0.0702	2.06596443716887	0.8356878120880887	0.1076	2.266618111464424	1.0221371785010835	-0.01275	2.119730653773512	0.7988667377190591	0.0702	2.1322382839374723	0.5963499632111209	0.1076
102	1.7	1.8266741852551036	0.68979355370089	0.0301	1.7308943277916051	0.7141567864815748	0.0301	1.48558481168503	0.4309274954522504	0.129	1.2658677218458032	0.1758384678695649	0.023	1.320328735520015	-0.004079432713977455	0.2179	1.2500657219008993	0.03152427470868962	0.1804	1.1990117212935694	0.16015496958779105	-0.0119	1.8768809217824505	0.6248341470067991	0.0301	1.6350923104704356	0.36226097216497216	0.129	1.3944630212628728	0.16138933399769434	0.023	1.4328355699858386	0.011947919810689682	0.2179	1.4606545145336451	0.02696517435504961	0.1804	1.3382397336929044	0.1336379304134863	-0.0119	2.247297878035777	1.1687826717901058	0.0008	2.4821170297192037	1.3460074519790624	0.0655	2.4410022280714645	1.2048332732655105	0.1076	2.048642700391452	1.195100411510721	-0.01275	1.800121389515637	1.0433041152821187	0.0702	2.070067569200764	0.8480286837799078	0.1076	2.2667197399506476	1.0226999533330612	-0.01275	2.1261059744367916	0.8009502538656672	0.0702	2.1637098072064513	0.6022117818100048	0.1076
